<svg width="12" height="4" viewBox="0 0 12 4" fill="none" xmlns="http://www.w3.org/2000/svg">
<path fill-rule="evenodd" clip-rule="evenodd" d="M1.33333 3.33341C0.596954 3.33341 0 2.73646 0 2.00008C0 1.2637 0.596954 0.666748 1.33333 0.666748C2.06971 0.666748 2.66667 1.2637 2.66667 2.00008C2.66667 2.73646 2.06971 3.33341 1.33333 3.33341ZM6 3.33341C5.26362 3.33341 4.66667 2.73646 4.66667 2.00008C4.66667 1.2637 5.26362 0.666748 6 0.666748C6.73638 0.666748 7.33333 1.2637 7.33333 2.00008C7.33333 2.73646 6.73638 3.33341 6 3.33341ZM9.33333 2.00008C9.33333 2.73646 9.93029 3.33341 10.6667 3.33341C11.403 3.33341 12 2.73646 12 2.00008C12 1.2637 11.403 0.666748 10.6667 0.666748C9.93029 0.666748 9.33333 1.2637 9.33333 2.00008Z" fill="#333333"/>
</svg>
